<svg width="15" height="14" viewBox="0 0 15 14" fill="none" xmlns="http://www.w3.org/2000/svg">
<path d="M7.5 1L7.78012 0.714458L7.5 0.439662L7.21988 0.714458L7.5 1ZM14 7.37652V7.77652C14.1625 7.77652 14.3088 7.67823 14.3703 7.52782C14.4317 7.37741 14.3961 7.20476 14.2801 7.09098L14 7.37652ZM12.1218 7.37652V6.97652H11.7218V7.37652H12.1218ZM12.1218 13V13.4H12.5218V13H12.1218ZM2.83604 13H2.43604V13.4H2.83604V13ZM2.83604 7.37652H3.23604V6.97652H2.83604V7.37652ZM1 7.37652L0.719883 7.09098C0.603893 7.20476 0.568259 7.37741 0.629718 7.52782C0.691178 7.67823 0.837517 7.77652 1 7.77652V7.37652ZM8.66071 13H8.26071V13.4H8.66071V13ZM6.22321 13V13.4H6.62321V13H6.22321ZM6.22321 8.87045V8.47045H5.82321V8.87045H6.22321ZM8.66071 8.87045H9.06071V8.47045H8.66071V8.87045ZM7.21988 1.28554L13.7199 7.66206L14.2801 7.09098L7.78012 0.714458L7.21988 1.28554ZM14 6.97652H12.1218V7.77652H14V6.97652ZM11.7218 7.37652V13H12.5218V7.37652H11.7218ZM3.23604 13V7.37652H2.43604V13H3.23604ZM2.83604 6.97652H1V7.77652H2.83604V6.97652ZM1.28012 7.66206L7.78012 1.28554L7.21988 0.714458L0.719883 7.09098L1.28012 7.66206ZM12.1218 12.6H8.66071V13.4H12.1218V12.6ZM6.22321 12.6H2.83604V13.4H6.22321V12.6ZM5.82321 8.87045V13H6.62321V8.87045H5.82321ZM9.06071 13V8.87045H8.26071V13H9.06071ZM8.66071 8.47045H6.22321V9.27044H8.66071V8.47045Z" fill="white"/>
</svg>
