<svg width="18" height="28" viewBox="0 0 18 28" fill="none" xmlns="http://www.w3.org/2000/svg">
<path d="M18 8.87262C18 3.98022 13.9627 0 8.99989 0C4.03732 0 0 3.98022 0 8.87262C0 13.0985 3.01217 16.6432 7.03064 17.531L6.15522 19.9107C6.0627 20.1622 6.1004 20.4422 6.25598 20.6614C6.41178 20.8804 6.66617 21.0107 6.93746 21.0107H8.16781V27.1797C8.16781 27.6328 8.54051 28 8.99989 28C9.45949 28 9.83197 27.6328 9.83197 27.1797V21.0107H11.0625C11.3338 21.0107 11.5882 20.8804 11.744 20.6612C11.8998 20.4422 11.9373 20.1622 11.8448 19.9105L10.9691 17.531C14.9878 16.6432 18 13.0985 18 8.87262ZM8.61982 18.0236H9.38039L9.87574 19.3701H8.12447L8.61982 18.0236ZM8.99989 16.1048C4.95499 16.1048 1.66416 12.8605 1.66416 8.87262C1.66416 4.88492 4.95499 1.64062 8.99989 1.64062C13.045 1.64062 16.3358 4.88492 16.3358 8.87262C16.3358 12.8605 13.045 16.1048 8.99989 16.1048Z" fill="#21A45D"/>
</svg>
