<svg width="25" height="25" viewBox="0 0 25 25" fill="none" xmlns="http://www.w3.org/2000/svg">
<path d="M17.6025 2.1607C16.0491 1.39637 14.3439 0.99934 12.616 1C9.59841 1.00066 6.70475 2.21288 4.57121 4.36912C2.43775 6.52602 1.23923 9.45054 1.23923 12.4999C1.237 14.125 1.57887 15.7316 2.24188 17.2121L1.01165 22.7288C0.995217 22.8008 0.996208 22.8761 1.01437 22.9482C1.03254 23.0202 1.06747 23.0862 1.11619 23.1424C1.15286 23.182 1.19621 23.2157 1.24419 23.2408C1.2612 23.2494 1.27887 23.2573 1.29695 23.2639C1.36599 23.2897 1.44006 23.2976 1.51297 23.2884L7.30137 22.6667C8.82879 23.4826 10.5201 23.9364 12.247 23.9939C13.9738 24.0507 15.6909 23.7098 17.2681 22.997C18.8452 22.2836 20.2409 21.2174 21.3493 19.8776C22.4579 18.5386 23.2499 16.9617 23.6657 15.2666C24.0814 13.5721 24.1098 11.8043 23.7487 10.0966C23.3876 8.38894 22.6465 6.78696 21.5815 5.41222C20.5166 4.03683 19.1559 2.92502 17.6025 2.1607Z" stroke="#21A45D" stroke-width="2"/>
</svg>
