<svg width="24" height="28" viewBox="0 0 24 28" fill="none" xmlns="http://www.w3.org/2000/svg">
<path d="M12.3837 13.2495C15.7201 13.2495 18.4342 10.5355 18.4342 7.19896C18.4342 3.86243 15.7201 1.14844 12.3837 1.14844C9.04722 1.14844 6.33313 3.86243 6.33313 7.19896C6.33313 10.5355 9.04722 13.2495 12.3837 13.2495ZM12.3837 3.04056C14.6763 3.04056 16.5421 4.90629 16.5421 7.19896C16.5421 9.49164 14.6763 11.3574 12.3837 11.3574C10.091 11.3574 8.22526 9.49164 8.22526 7.19896C8.22526 4.90629 10.091 3.04056 12.3837 3.04056Z" fill="#21A45D" stroke="#21A45D" stroke-width="0.5"/>
<path d="M12.3837 15.4395C6.23262 15.4395 1.22876 20.4433 1.22876 26.5944C1.22876 27.117 1.65236 27.5405 2.17482 27.5405C2.69728 27.5405 3.12089 27.117 3.12089 26.5944C3.12089 21.4871 7.27638 17.3316 12.3837 17.3316C17.4911 17.3316 21.6466 21.4871 21.6466 26.5944C21.6466 27.117 22.0702 27.5405 22.5927 27.5405C23.1151 27.5405 23.5387 27.117 23.5387 26.5944C23.5387 20.4433 18.5349 15.4395 12.3837 15.4395Z" fill="#21A45D" stroke="#21A45D" stroke-width="0.5"/>
</svg>
