<svg width="31" height="24" viewBox="0 0 31 24" fill="none" xmlns="http://www.w3.org/2000/svg">
<path d="M26.8028 0.119141H3.97076C1.93264 0.119141 0.275879 1.7759 0.275879 3.81403V19.4188C0.275879 21.4569 1.93264 23.1137 3.97076 23.1137H26.7965C28.8347 23.1137 30.4914 21.4569 30.4914 19.4188V3.82028C30.4977 1.78215 28.8409 0.119141 26.8028 0.119141ZM28.8097 19.4188C28.8097 20.5254 27.9094 21.4257 26.8028 21.4257H3.97076C2.86417 21.4257 1.9639 20.5254 1.9639 19.4188V3.82028C1.9639 2.71369 2.86417 1.81341 3.97076 1.81341H26.7965C27.9031 1.81341 28.8034 2.71369 28.8034 3.82028V19.4188H28.8097Z" fill="#21A45D"/>
<path d="M19.3317 11.4238L26.7215 4.79679C27.0654 4.48419 27.0966 3.95278 26.784 3.60267C26.4714 3.25882 25.94 3.22756 25.5899 3.54015L15.3993 12.6867L13.4112 10.9112C13.4049 10.9049 13.3987 10.8987 13.3987 10.8924C13.3549 10.8487 13.3111 10.8111 13.2611 10.7736L5.17113 3.5339C4.82103 3.22131 4.28961 3.25257 3.97702 3.60267C3.66442 3.95278 3.69568 4.48419 4.04579 4.79679L11.5231 11.4801L4.07705 18.451C3.73944 18.7698 3.72069 19.3012 4.03954 19.6451C4.20834 19.8202 4.43341 19.9139 4.65848 19.9139C4.86479 19.9139 5.0711 19.8389 5.23365 19.6889L12.7922 12.6179L14.8429 14.4498C15.0054 14.5936 15.2055 14.6623 15.4055 14.6623C15.6056 14.6623 15.8119 14.5873 15.9682 14.4435L18.0751 12.5554L25.5899 19.6951C25.7525 19.8514 25.965 19.9264 26.1713 19.9264C26.3964 19.9264 26.6152 19.8389 26.784 19.6639C27.1029 19.3263 27.0904 18.7886 26.7528 18.4697L19.3317 11.4238Z" fill="#21A45D"/>
</svg>
