<svg width="30" height="30" viewBox="0 0 30 30" fill="none" xmlns="http://www.w3.org/2000/svg">
<path d="M21.3373 3.06855C19.5247 2.17841 17.5351 1.71603 15.519 1.7168C11.998 1.71757 8.62169 3.12932 6.13225 5.64048C3.64292 8.15241 2.24447 11.5583 2.24447 15.1096C2.24187 17.0022 2.64076 18.8733 3.41437 20.5974L1.97893 27.0222C1.95975 27.1061 1.96091 27.1938 1.9821 27.2777C2.0033 27.3615 2.04406 27.4385 2.10091 27.5039C2.14369 27.55 2.19427 27.5893 2.25025 27.6185C2.2701 27.6285 2.29072 27.6377 2.31182 27.6454C2.39237 27.6754 2.4788 27.6847 2.56388 27.6739L9.31783 26.9499C11.1 27.9001 13.0735 28.4286 15.0884 28.4955C17.1033 28.5617 19.1069 28.1647 20.9471 27.3346C22.7873 26.5037 24.4158 25.262 25.7092 23.7017C27.0026 22.1423 27.9268 20.3058 28.4119 18.3317C28.8969 16.3583 28.9301 14.2995 28.5087 12.3107C28.0874 10.322 27.2226 8.4563 25.9801 6.85528C24.7375 5.2535 23.1498 3.95868 21.3373 3.06855Z" stroke="#21A45D" stroke-width="2"/>
<circle cx="10.2284" cy="15.109" r="1.55042" fill="#21A45D"/>
<path d="M16.9341 15.109C16.9341 15.9653 16.2399 16.6594 15.3837 16.6594C14.5274 16.6594 13.8333 15.9653 13.8333 15.109C13.8333 14.2527 14.5274 13.5586 15.3837 13.5586C16.2399 13.5586 16.9341 14.2527 16.9341 15.109Z" fill="#21A45D"/>
<circle cx="20.5389" cy="15.109" r="1.55042" fill="#21A45D"/>
</svg>
