<svg width="15" height="15" viewBox="0 0 15 15" fill="none" xmlns="http://www.w3.org/2000/svg">
<path d="M10.384 1.30497C9.50599 0.87296 8.54218 0.648553 7.56557 0.648926C5.85997 0.6493 4.22442 1.33447 3.01851 2.55321C1.81264 3.77233 1.13522 5.42532 1.13522 7.14888C1.13396 8.06742 1.32719 8.9755 1.70193 9.81227L1.00658 12.9304C0.997297 12.9711 0.997857 13.0137 1.00812 13.0544C1.01839 13.0951 1.03814 13.1324 1.06567 13.1642C1.0864 13.1866 1.1109 13.2056 1.13802 13.2198C1.14763 13.2247 1.15762 13.2292 1.16784 13.2329C1.20686 13.2474 1.24873 13.2519 1.28994 13.2467L4.56164 12.8953C5.42497 13.3565 6.38094 13.613 7.35699 13.6455C8.33303 13.6776 9.30357 13.4849 10.195 13.082C11.0864 12.6788 11.8753 12.0761 12.5018 11.3189C13.1284 10.562 13.576 9.67075 13.8111 8.71264C14.046 7.75489 14.0621 6.7557 13.858 5.79049C13.6539 4.82528 13.235 3.91981 12.633 3.14279C12.0311 2.3654 11.262 1.73698 10.384 1.30497Z" stroke="white" stroke-opacity="0.4" stroke-width="0.85"/>
</svg>
