<svg width="16" height="16" viewBox="0 0 16 16" fill="white" xmlns="http://www.w3.org/2000/svg">
<path d="M14.6236 6.4629L13.5501 6.28077C13.4382 5.91972 13.2945 5.57145 13.1187 5.23916L13.7514 4.35411C14.0197 3.97708 13.9782 3.46267 13.6491 3.13676L12.697 2.18461C12.518 2.00568 12.2816 1.90664 12.0292 1.90664C11.8311 1.90664 11.6426 1.96734 11.4828 2.08237L10.5946 2.715C10.2495 2.53288 9.88844 2.38271 9.51461 2.27088L9.33568 1.2101C9.259 0.753192 8.86599 0.420898 8.4027 0.420898H7.05755C6.59425 0.420898 6.20125 0.753192 6.12457 1.2101L5.93925 2.29644C5.5814 2.40827 5.23313 2.55525 4.90083 2.73418L4.02217 2.10154C3.86242 1.98651 3.67071 1.92581 3.47261 1.92581C3.22019 1.92581 2.98056 2.02486 2.80483 2.20378L1.84948 3.15593C1.52358 3.48184 1.47885 3.99625 1.74724 4.37328L2.38626 5.27111C2.21053 5.6066 2.06995 5.95487 1.96131 6.31592L0.900526 6.49485C0.443622 6.57153 0.111328 6.96453 0.111328 7.42783V8.77298C0.111328 9.23627 0.443622 9.62927 0.900526 9.70596L1.98687 9.89127C2.0987 10.2491 2.24568 10.5974 2.42461 10.9297L1.79516 11.8052C1.52677 12.1822 1.56831 12.6966 1.89741 13.0225L2.84956 13.9747C3.02849 14.1536 3.26493 14.2526 3.51734 14.2526C3.71544 14.2526 3.90395 14.1919 4.06371 14.0769L4.96154 13.4379C5.28425 13.6072 5.62293 13.7446 5.9712 13.8532L6.15013 14.9268C6.22681 15.3837 6.61982 15.716 7.08311 15.716H8.43146C8.89475 15.716 9.28775 15.3837 9.36444 14.9268L9.54656 13.8532C9.90761 13.7414 10.2559 13.5976 10.5882 13.4219L11.4732 14.0545C11.633 14.1696 11.8247 14.2303 12.0228 14.2303C12.2752 14.2303 12.5116 14.1312 12.6906 13.9523L13.6427 13.0001C13.9686 12.6742 14.0134 12.1598 13.745 11.7828L13.1123 10.8945C13.2881 10.5591 13.435 10.2108 13.5437 9.85293L14.6172 9.67401C15.0741 9.59732 15.4064 9.20432 15.4064 8.74103V7.39587C15.4128 6.93258 15.0805 6.53958 14.6236 6.4629ZM14.5501 8.74103C14.5501 8.78256 14.5214 8.81771 14.4798 8.8241L13.1379 9.04776C12.9685 9.07652 12.8344 9.20113 12.7928 9.36408C12.6714 9.83376 12.4861 10.2843 12.2369 10.7028C12.1506 10.8498 12.157 11.0319 12.256 11.1725L13.0452 12.2844C13.0676 12.3164 13.0644 12.3643 13.0356 12.3931L12.0835 13.3452C12.0611 13.3676 12.0388 13.3708 12.0228 13.3708C12.0036 13.3708 11.9876 13.3644 11.9749 13.3548L10.8661 12.5656C10.7288 12.4666 10.5434 12.4602 10.3965 12.5464C9.9779 12.7957 9.52739 12.981 9.0577 13.1024C8.89156 13.1439 8.76695 13.2813 8.74138 13.4475L8.51453 14.7894C8.50814 14.831 8.47299 14.8597 8.43146 14.8597H7.08631C7.04477 14.8597 7.00962 14.831 7.00323 14.7894L6.77957 13.4475C6.75082 13.2781 6.62621 13.1439 6.46325 13.1024C6.00635 12.9842 5.56542 12.802 5.15325 12.5656C5.08615 12.5273 5.00947 12.5081 4.93598 12.5081C4.84971 12.5081 4.76025 12.5337 4.68676 12.588L3.56846 13.3836C3.55249 13.3931 3.53651 13.3995 3.52054 13.3995C3.50776 13.3995 3.48219 13.3963 3.45983 13.374L2.50768 12.4218C2.47892 12.3931 2.47573 12.3483 2.49809 12.3132L3.2841 11.2109C3.38315 11.0703 3.38954 10.885 3.30327 10.738C3.05405 10.3226 2.86234 9.8721 2.74092 9.40242C2.69619 9.23947 2.562 9.11486 2.39585 9.0861L1.04431 8.85605C1.00277 8.84966 0.974014 8.81452 0.974014 8.77298V7.42783C0.974014 7.38629 1.00277 7.35114 1.04431 7.34475L2.37668 7.12109C2.54602 7.09234 2.68341 6.96773 2.72495 6.80158C2.84317 6.3319 3.02529 5.87819 3.27132 5.45962C3.35758 5.31265 3.348 5.13053 3.24895 4.99313L2.45336 3.87484C2.431 3.84289 2.43419 3.79496 2.46295 3.7662L3.4151 2.81405C3.43746 2.79169 3.45983 2.78849 3.4758 2.78849C3.49497 2.78849 3.51095 2.79488 3.52373 2.80447L4.62605 3.59047C4.76664 3.68952 4.95196 3.69591 5.09893 3.60964C5.5143 3.36042 5.96481 3.16871 6.4345 3.0473C6.59745 3.00257 6.72206 2.86837 6.75082 2.70222L6.98087 1.35068C6.98726 1.30915 7.0224 1.28039 7.06394 1.28039H8.40909C8.45063 1.28039 8.48577 1.30915 8.49216 1.35068L8.71582 2.68305C8.74458 2.8524 8.86919 2.98979 9.03534 3.03132C9.5178 3.15274 9.9779 3.34125 10.406 3.59367C10.553 3.67993 10.7351 3.67354 10.8757 3.5745L11.9781 2.7821C11.994 2.77252 12.01 2.76613 12.026 2.76613C12.0388 2.76613 12.0643 2.76932 12.0867 2.79169L13.0388 3.74384C13.0676 3.77259 13.0708 3.81733 13.0484 3.85247L12.2592 4.96118C12.1602 5.09857 12.1538 5.28389 12.2401 5.43087C12.4893 5.84943 12.6746 6.29994 12.796 6.76963C12.8375 6.93578 12.9749 7.06039 13.1411 7.08595L14.483 7.3128C14.5246 7.31919 14.5533 7.35434 14.5533 7.39587V8.74103H14.5501Z"/>
<path d="M7.76151 4.7666C5.94028 4.7666 4.46094 6.24595 4.46094 8.06717C4.46094 9.8884 5.94028 11.3677 7.76151 11.3677C9.58274 11.3677 11.0621 9.8884 11.0621 8.06717C11.0621 6.24595 9.58274 4.7666 7.76151 4.7666ZM7.76151 10.5051C6.41636 10.5051 5.32362 9.41233 5.32362 8.06717C5.32362 6.72202 6.41636 5.62929 7.76151 5.62929C9.10666 5.62929 10.1994 6.72202 10.1994 8.06717C10.1994 9.41233 9.10666 10.5051 7.76151 10.5051Z"/>
</svg>
