<svg width="18" height="14" viewBox="0 0 18 14" fill="none" xmlns="http://www.w3.org/2000/svg">
<path d="M17.4285 12.8386H16.7198V1.87206C16.7198 1.33168 16.2802 0.892139 15.7399 0.892139H14.044C13.5036 0.892139 13.0641 1.33171 13.0641 1.87206V12.8386H11.2375V6.86342C11.2375 6.32304 10.798 5.8835 10.2576 5.8835H8.56171C8.02132 5.8835 7.58178 6.32308 7.58178 6.86342V12.8386H5.75524V9.76822C5.75524 9.22783 5.31567 8.78829 4.77532 8.78829H3.07941C2.53902 8.78829 2.09948 9.22787 2.09948 9.76822V12.8386H1.34983C1.13116 12.8386 0.953906 13.0159 0.953906 13.2346C0.953906 13.4532 1.13116 13.6305 1.34983 13.6305H17.4285C17.6472 13.6305 17.8244 13.4532 17.8244 13.2346C17.8244 13.0159 17.6472 12.8386 17.4285 12.8386ZM4.96332 12.8386H2.8913V9.76822C2.8913 9.66455 2.97571 9.58015 3.07937 9.58015H4.77525C4.87891 9.58015 4.96332 9.66455 4.96332 9.76822V12.8386ZM10.4456 12.8386H8.37361V6.86342C8.37361 6.75976 8.45801 6.67536 8.56167 6.67536H10.2576C10.3612 6.67536 10.4456 6.75976 10.4456 6.86342V12.8386ZM15.9279 12.8386H13.8559V1.87206C13.8559 1.7684 13.9403 1.68399 14.044 1.68399H15.7399C15.8435 1.68399 15.9279 1.7684 15.9279 1.87206V12.8386Z" fill="white" stroke="white" stroke-width="0.1"/>
</svg>
