<svg width="17" height="13" viewBox="0 0 17 13" fill="none" xmlns="http://www.w3.org/2000/svg">
<circle cx="10.7598" cy="2.53711" r="2.1" stroke="white" stroke-width="0.8"/>
<path fill-rule="evenodd" clip-rule="evenodd" d="M15.459 12.0371H16.2598C16.2598 8.72339 13.7969 6.03711 10.7598 6.03711C7.72266 6.03711 5.25977 8.72339 5.25977 12.0371H6.06055C6.06055 9.09839 8.22852 6.83716 10.7598 6.83716C13.291 6.83716 15.459 9.09839 15.459 12.0371Z" fill="white"/>
<rect x="6.04492" y="11.2373" width="9.42184" height="0.8" fill="white"/>
<circle cx="5.25924" cy="3.94185" r="1.73033" stroke="white" stroke-width="0.8"/>
<path fill-rule="evenodd" clip-rule="evenodd" d="M7.25391 7.40894C6.64844 7.09814 5.97266 6.92432 5.25977 6.92432C2.66992 6.92432 0.572266 9.21338 0.572266 12.0371H1.37305C1.37305 9.58838 3.17578 7.72437 5.25977 7.72437C5.75195 7.72437 6.23242 7.8291 6.67383 8.02173C6.84961 7.82104 7.05664 7.5979 7.25391 7.40894Z" fill="white"/>
<rect x="1.36523" y="11.3555" width="3.89534" height="0.681705" fill="white"/>
</svg>
