<svg width="24" height="21" viewBox="0 0 24 21" fill="none" xmlns="http://www.w3.org/2000/svg">
<mask id="path-1-outside-1" maskUnits="userSpaceOnUse" x="0" y="7.00024" width="17" height="14" fill="black">
<rect fill="white" y="7.00024" width="17" height="14"/>
<path fill-rule="evenodd" clip-rule="evenodd" d="M2.98828 8.00024V8.2959C1.86133 8.49341 1 9.49219 1 10.6946V17.281C1 17.7839 1.15039 18.252 1.4082 18.6406C1.83984 19.2896 2.57031 19.7173 3.39648 19.7173H13.1855C14.5059 19.7173 15.582 18.624 15.582 17.2808V10.6941C15.582 10.2473 15.4629 9.82837 15.2559 9.46851C14.9043 8.86035 14.3008 8.41992 13.5938 8.2959V8.00024H12.9297V8.25781H3.65039V8.00024H2.98828ZM13.1855 19.043C14.1406 19.043 14.918 18.2524 14.918 17.2808V10.6941C14.918 9.72241 14.1406 8.93188 13.1855 8.93188H3.39648C2.43945 8.93188 1.66211 9.72241 1.66211 10.6941V17.2808C1.66211 18.2524 2.43945 19.043 3.39648 19.043H13.1855Z"/>
</mask>
<path fill-rule="evenodd" clip-rule="evenodd" d="M2.98828 8.00024V8.2959C1.86133 8.49341 1 9.49219 1 10.6946V17.281C1 17.7839 1.15039 18.252 1.4082 18.6406C1.83984 19.2896 2.57031 19.7173 3.39648 19.7173H13.1855C14.5059 19.7173 15.582 18.624 15.582 17.2808V10.6941C15.582 10.2473 15.4629 9.82837 15.2559 9.46851C14.9043 8.86035 14.3008 8.41992 13.5938 8.2959V8.00024H12.9297V8.25781H3.65039V8.00024H2.98828ZM13.1855 19.043C14.1406 19.043 14.918 18.2524 14.918 17.2808V10.6941C14.918 9.72241 14.1406 8.93188 13.1855 8.93188H3.39648C2.43945 8.93188 1.66211 9.72241 1.66211 10.6941V17.2808C1.66211 18.2524 2.43945 19.043 3.39648 19.043H13.1855Z" fill="#21A45D"/>
<path d="M2.98828 8.00024V7.50024H2.48828V8.00024H2.98828ZM2.98828 8.2959L3.0746 8.78839L3.48828 8.71589V8.2959H2.98828ZM1.4082 18.6406L0.991535 18.917L0.991889 18.9175L1.4082 18.6406ZM15.2559 9.46851L15.6893 9.21917L15.6887 9.21827L15.2559 9.46851ZM13.5938 8.2959H13.0938V8.71583L13.5074 8.78838L13.5938 8.2959ZM13.5938 8.00024H14.0938V7.50024H13.5938V8.00024ZM12.9297 8.00024V7.50024H12.4297V8.00024H12.9297ZM12.9297 8.25781V8.75781H13.4297V8.25781H12.9297ZM3.65039 8.25781H3.15039V8.75781H3.65039V8.25781ZM3.65039 8.00024H4.15039V7.50024H3.65039V8.00024ZM2.48828 8.00024V8.2959H3.48828V8.00024H2.48828ZM2.90197 7.8034C1.5352 8.04295 0.5 9.24998 0.5 10.6946H1.5C1.5 9.7344 2.18746 8.94387 3.0746 8.78839L2.90197 7.8034ZM0.5 10.6946V17.281H1.5V10.6946H0.5ZM0.5 17.281C0.5 17.8849 0.68084 18.4486 0.991535 18.917L1.82487 18.3642C1.61994 18.0553 1.5 17.683 1.5 17.281H0.5ZM0.991889 18.9175C1.5105 19.6972 2.39288 20.2173 3.39648 20.2173V19.2173C2.74775 19.2173 2.16919 18.8819 1.82452 18.3637L0.991889 18.9175ZM3.39648 20.2173H13.1855V19.2173H3.39648V20.2173ZM13.1855 20.2173C14.7897 20.2173 16.082 18.8924 16.082 17.2808H15.082C15.082 18.3556 14.2221 19.2173 13.1855 19.2173V20.2173ZM16.082 17.2808V10.6941H15.082V17.2808H16.082ZM16.082 10.6941C16.082 10.1575 15.9387 9.65283 15.6893 9.21917L14.8225 9.71784C14.987 10.0039 15.082 10.3372 15.082 10.6941H16.082ZM15.6887 9.21827C15.2664 8.48761 14.5389 7.95407 13.6801 7.80342L13.5074 8.78838C14.0626 8.88578 14.5422 9.23309 14.823 9.71874L15.6887 9.21827ZM14.0938 8.2959V8.00024H13.0938V8.2959H14.0938ZM13.5938 7.50024H12.9297V8.50024H13.5938V7.50024ZM12.4297 8.00024V8.25781H13.4297V8.00024H12.4297ZM12.9297 7.75781H3.65039V8.75781H12.9297V7.75781ZM4.15039 8.25781V8.00024H3.15039V8.25781H4.15039ZM3.65039 7.50024H2.98828V8.50024H3.65039V7.50024ZM14.418 17.2808C14.418 17.9843 13.8565 18.543 13.1855 18.543V19.543C14.4247 19.543 15.418 18.5205 15.418 17.2808H14.418ZM14.418 10.6941V17.2808H15.418V10.6941H14.418ZM13.1855 9.43188C13.8565 9.43188 14.418 9.99052 14.418 10.6941H15.418C15.418 9.45431 14.4247 8.43188 13.1855 8.43188V9.43188ZM3.39648 9.43188H13.1855V8.43188H3.39648V9.43188ZM2.16211 10.6941C2.16211 9.99089 2.7232 9.43188 3.39648 9.43188V8.43188C2.15571 8.43188 1.16211 9.45394 1.16211 10.6941H2.16211ZM2.16211 17.2808V10.6941H1.16211V17.2808H2.16211ZM3.39648 18.543C2.7232 18.543 2.16211 17.984 2.16211 17.2808H1.16211C1.16211 18.5209 2.15571 19.543 3.39648 19.543V18.543ZM13.1855 18.543H3.39648V19.543H13.1855V18.543Z" fill="#21A45D" mask="url(#path-1-outside-1)"/>
<path d="M13.1719 7.53518C13.1719 5.53518 14.0719 1.43518 17.6719 1.03518C22.1719 0.535179 23.1719 5.53518 23.1719 7.53518" stroke="#21A45D" stroke-width="1.5"/>
<line x1="7.85156" y1="13.0208" x2="7.85156" y2="15.2779" stroke="#21A45D" stroke-width="2" stroke-linecap="round"/>
</svg>
