<svg width="16" height="16" viewBox="0 0 16 16" fill="none" xmlns="http://www.w3.org/2000/svg">
<path d="M11.1059 1.70651C10.1603 1.24127 9.12234 0.999598 8.07062 1C6.23381 1.0004 4.47245 1.73828 3.17378 3.05077C1.87515 4.36366 1.14562 6.14381 1.14562 7.99995C1.14426 8.98915 1.35236 9.96708 1.75593 10.8682L1.00709 14.2262C0.997089 14.2701 0.997692 14.3159 1.00875 14.3597C1.01981 14.4036 1.04107 14.4438 1.07073 14.478C1.09304 14.5021 1.11943 14.5226 1.14864 14.5379C1.15899 14.5431 1.16975 14.5479 1.18075 14.552C1.22277 14.5676 1.26786 14.5725 1.31225 14.5668L4.83561 14.1884C5.76535 14.6851 6.79486 14.9613 7.84599 14.9963C8.89711 15.0309 9.9423 14.8234 10.9023 14.3895C11.8623 13.9552 12.7119 13.3062 13.3866 12.4907C14.0613 11.6757 14.5434 10.7158 14.7965 9.684C15.0495 8.65258 15.0668 7.57653 14.847 6.53707C14.6272 5.49762 14.1761 4.5225 13.5279 3.6857C12.8797 2.84851 12.0514 2.17175 11.1059 1.70651Z" stroke="#BCBCC7" stroke-width="2"/>
</svg>
