<svg width="21" height="21" viewBox="0 0 21 21" fill="none" xmlns="http://www.w3.org/2000/svg">
<path d="M0.904785 3.77416C0.942759 3.58913 0.969422 3.40007 1.02113 3.21909C1.17534 2.68067 1.48989 2.202 1.9229 1.84679C2.35591 1.49158 2.88684 1.27668 3.44501 1.2307C3.53146 1.22343 3.61791 1.21777 3.70436 1.21777H10.4322C10.7635 1.21777 11.0075 1.38906 11.0907 1.67831C11.1166 1.76826 11.122 1.86287 11.1066 1.95519C11.0912 2.04752 11.0554 2.13523 11.0017 2.21192C10.948 2.2886 10.8779 2.35231 10.7964 2.39838C10.7149 2.44445 10.6242 2.47172 10.5308 2.47819C10.4783 2.47819 10.4242 2.47819 10.3692 2.47819H3.72295C2.94811 2.47819 2.34457 2.97024 2.1959 3.72325C2.17598 3.82817 2.16651 3.9348 2.16762 4.04159C2.16762 8.47998 2.16762 12.9181 2.16762 17.3559C2.16762 18.1437 2.68714 18.7666 3.44986 18.8951C3.53891 18.9082 3.62893 18.9136 3.71891 18.9113C8.37383 18.9113 13.0287 18.9126 17.6837 18.9153C17.8882 18.9168 18.091 18.8776 18.2803 18.7999C18.4695 18.7223 18.6414 18.6077 18.786 18.463C18.9305 18.3182 19.0448 18.1461 19.1221 17.9568C19.1995 17.7674 19.2384 17.5645 19.2366 17.36C19.2333 15.2593 19.2333 13.1602 19.2366 11.0628C19.2366 10.7266 19.4119 10.4843 19.71 10.4067C19.7999 10.3837 19.8936 10.3808 19.9847 10.3981C20.0758 10.4155 20.1619 10.4526 20.2371 10.507C20.3122 10.5614 20.3744 10.6316 20.4193 10.7127C20.4642 10.7938 20.4907 10.8838 20.497 10.9763C20.497 11.0062 20.497 11.0361 20.497 11.066C20.497 13.1667 20.5091 15.2674 20.4929 17.3681C20.4832 18.58 19.9023 19.4486 18.8043 19.964C18.5306 20.0882 18.2359 20.1597 17.9358 20.1749C17.897 20.1749 17.855 20.1862 17.8186 20.1919H3.58398C3.51126 20.1838 3.43854 20.1765 3.36664 20.1676C2.81388 20.1041 2.29302 19.8757 1.87183 19.5122C1.45063 19.1486 1.14858 18.6667 1.00497 18.1292C0.960534 17.9676 0.937911 17.7987 0.904785 17.6331V3.77416Z" fill="#21A45D"/>
<path d="M4.7903 15.5582C4.80554 15.4764 4.82495 15.3955 4.84847 15.3158C5.23144 14.1636 5.6128 13.0115 6.00385 11.8626C6.0495 11.7311 6.12373 11.6113 6.22119 11.5119C9.76329 7.96228 13.3078 4.41534 16.8547 0.871096C17.1585 0.567304 17.5262 0.568112 17.8316 0.871096L20.1197 3.16166C20.4348 3.47757 20.4364 3.83954 20.1197 4.15303C16.5765 7.69673 13.0323 11.2391 9.48696 14.7801C9.38558 14.8804 9.26299 14.9566 9.12823 15.0031C7.97931 15.3934 6.82393 15.7682 5.67582 16.1609C5.25649 16.3039 4.8921 16.064 4.81211 15.7246C4.80323 15.6769 4.79999 15.6269 4.7903 15.5582ZM14.9463 4.56024C14.8583 4.64992 14.7718 4.74203 14.6821 4.83171C12.2017 7.31268 9.72154 9.79393 7.24165 12.2754C7.20103 12.3139 7.16932 12.3608 7.14873 12.4128C6.91496 13.106 6.68335 13.8001 6.45389 14.4949C6.44689 14.5195 6.44176 14.5446 6.43854 14.57C6.45217 14.5683 6.46566 14.5656 6.47893 14.562C7.1824 14.3277 7.88586 14.0923 8.58932 13.8558C8.64155 13.8363 8.68876 13.8054 8.72748 13.7653C11.2305 11.2639 13.7328 8.76189 16.2342 6.25938C16.3045 6.18908 16.3821 6.12606 16.4508 6.06466L14.9463 4.56024ZM15.8795 3.6529L17.3468 5.12096L18.8052 3.66259L17.3371 2.19534C16.8531 2.68012 16.3611 3.17136 15.8795 3.6529Z" fill="#21A45D"/>
</svg>
