<svg width="19" height="19" viewBox="0 0 19 19" fill="none" xmlns="http://www.w3.org/2000/svg">
<path d="M8.75571 7.4437C9.71323 6.69645 10.33 5.53208 10.33 4.22627C10.33 1.97659 8.49971 0.146484 6.25017 0.146484C4.00063 0.146484 2.17039 1.97659 2.17039 4.22627C2.17039 5.53208 2.78725 6.69658 3.74476 7.44384C1.62302 8.4004 0.142578 10.5355 0.142578 13.0099V17.3433C0.142578 17.7294 0.455515 18.0423 0.841634 18.0423H11.6591C12.0451 18.0423 12.3582 17.7294 12.3582 17.3433V13.0099C12.3582 10.5354 10.8776 8.40026 8.75571 7.4437ZM3.5685 4.22627C3.5685 2.7476 4.7715 1.5446 6.25017 1.5446C7.72884 1.5446 8.93184 2.7476 8.93184 4.22627C8.93184 5.70494 7.72884 6.9078 6.25017 6.9078C4.7715 6.9078 3.5685 5.7048 3.5685 4.22627ZM10.9601 16.6442H1.54069V13.0099C1.54069 10.4161 3.65083 8.30591 6.24457 8.30591H6.25604C8.84978 8.30591 10.9601 10.4161 10.9601 13.0099V16.6442ZM18.0384 7.60686C18.0384 7.99298 17.7255 8.30591 17.3394 8.30591H15.2427V10.4031C15.2427 10.7892 14.9298 11.1021 14.5437 11.1021C14.1576 11.1021 13.8446 10.7892 13.8446 10.4031V8.30591H11.7473C11.3612 8.30591 11.0483 7.99298 11.0483 7.60686C11.0483 7.22074 11.3612 6.9078 11.7473 6.9078H13.8446V4.81064C13.8446 4.42452 14.1576 4.11158 14.5437 4.11158C14.9298 4.11158 15.2427 4.42452 15.2427 4.81064V6.9078H17.3394C17.7255 6.9078 18.0384 7.22074 18.0384 7.60686Z" fill="#21A45D"/>
<path d="M8.75571 7.4437C9.71323 6.69645 10.33 5.53208 10.33 4.22627C10.33 1.97659 8.49971 0.146484 6.25017 0.146484C4.00063 0.146484 2.17039 1.97659 2.17039 4.22627C2.17039 5.53208 2.78725 6.69658 3.74476 7.44384C1.62302 8.4004 0.142578 10.5355 0.142578 13.0099V17.3433C0.142578 17.7294 0.455515 18.0423 0.841634 18.0423H11.6591C12.0451 18.0423 12.3582 17.7294 12.3582 17.3433V13.0099C12.3582 10.5354 10.8776 8.40026 8.75571 7.4437ZM3.5685 4.22627C3.5685 2.7476 4.7715 1.5446 6.25017 1.5446C7.72884 1.5446 8.93184 2.7476 8.93184 4.22627C8.93184 5.70494 7.72884 6.9078 6.25017 6.9078C4.7715 6.9078 3.5685 5.7048 3.5685 4.22627ZM10.9601 16.6442H1.54069V13.0099C1.54069 10.4161 3.65083 8.30591 6.24457 8.30591H6.25604C8.84978 8.30591 10.9601 10.4161 10.9601 13.0099V16.6442ZM18.0384 7.60686C18.0384 7.99298 17.7255 8.30591 17.3394 8.30591H15.2427V10.4031C15.2427 10.7892 14.9298 11.1021 14.5437 11.1021C14.1576 11.1021 13.8446 10.7892 13.8446 10.4031V8.30591H11.7473C11.3612 8.30591 11.0483 7.99298 11.0483 7.60686C11.0483 7.22074 11.3612 6.9078 11.7473 6.9078H13.8446V4.81064C13.8446 4.42452 14.1576 4.11158 14.5437 4.11158C14.9298 4.11158 15.2427 4.42452 15.2427 4.81064V6.9078H17.3394C17.7255 6.9078 18.0384 7.22074 18.0384 7.60686Z" stroke="#21A45D"/>
</svg>
