<svg width="16" height="20" viewBox="0 0 16 20" fill="none" xmlns="http://www.w3.org/2000/svg">
<path d="M15.5313 10.2555C15.5313 9.00665 14.6864 7.95375 13.5429 7.65581V5.96525C13.5429 3.11371 11.0327 0.828125 7.99059 0.828125C4.94852 0.828125 2.43824 3.11371 2.43824 5.96525V7.65581C1.29472 7.95376 0.44986 9.00669 0.44986 10.2558V16.8423C0.44986 18.3195 1.63257 19.5284 3.09553 19.5284H12.8857C14.3486 19.5284 15.5313 18.3195 15.5313 16.842V10.2555ZM3.60103 5.96525C3.60103 3.80222 5.54704 2.00221 7.99059 2.00221C10.4341 2.00221 12.3801 3.80222 12.3801 5.96525V7.56899H3.60103V5.96525ZM14.3685 16.842C14.3685 17.6796 13.699 18.3544 12.8857 18.3544H3.09553C2.28215 18.3544 1.61265 17.6796 1.61265 16.842V10.2555C1.61265 9.41785 2.28215 8.74307 3.09553 8.74307H12.8857C13.699 8.74307 14.3685 9.41785 14.3685 10.2555V16.842Z" fill="#21A45D" stroke="#21A45D" stroke-width="0.5"/>
<line x1="7.98526" y1="12.582" x2="7.98526" y2="14.8391" stroke="#21A45D" stroke-width="2" stroke-linecap="round"/>
</svg>
