<svg width="12" height="12" viewBox="0 0 12 12" fill="none" xmlns="http://www.w3.org/2000/svg">
<path d="M6.19878 4.46196L6.0229 4.28868C5.97011 4.237 5.94024 4.16635 5.9399 4.09254L5.9399 4.09221C5.93924 4.0183 5.96817 3.9472 6.02039 3.89474L8.32545 1.56475C8.43346 1.45589 8.60912 1.45469 8.71863 1.56214L10.6959 3.51023C10.805 3.61802 10.8065 3.79368 10.6993 3.9033L8.40397 6.24299C8.35218 6.29567 8.28153 6.32566 8.20761 6.32632C8.1338 6.32698 8.0626 6.29816 8.01003 6.24626L7.83404 6.07299C7.72464 5.9651 7.54843 5.96641 7.44054 6.07593C7.33265 6.18544 7.33396 6.36165 7.44348 6.46954L7.61936 6.64281C7.77728 6.79839 7.99067 6.88474 8.21242 6.88287C8.43406 6.881 8.64602 6.79104 8.80127 6.63268L11.0965 4.2931C11.4182 3.96413 11.4137 3.43715 11.0865 3.11368L9.1092 1.1657C8.78089 0.843331 8.25389 0.846721 7.92977 1.17331L5.6247 3.50319C5.46825 3.66046 5.38135 3.87385 5.38334 4.09571L5.38334 4.09658C5.38445 4.31812 5.47409 4.53009 5.63233 4.68512L5.80821 4.8584C5.87896 4.92864 5.98189 4.9557 6.07801 4.92933C6.17413 4.90295 6.2489 4.82717 6.27384 4.73056C6.29877 4.63406 6.27018 4.53154 6.19878 4.46185L6.19878 4.46196Z"/>
<path d="M6.74297 8.72117C6.89943 8.5639 6.98643 8.35051 6.98434 8.12865L6.98433 8.12767C6.98333 7.90613 6.89369 7.69427 6.73545 7.53924L6.55946 7.36597C6.45006 7.25807 6.27385 7.25939 6.16596 7.3689C6.05807 7.47831 6.05938 7.65452 6.1689 7.76241L6.34478 7.93568C6.39756 7.98736 6.42744 8.05801 6.42777 8.13183L6.42778 8.13215C6.42844 8.20607 6.39951 8.27727 6.34728 8.32962L4.04222 10.6597C3.93422 10.7686 3.75855 10.7697 3.64915 10.6622L1.67176 8.71413C1.56268 8.60635 1.56126 8.43069 1.66839 8.32107L3.96371 5.98126C4.01549 5.92848 4.08615 5.89849 4.16006 5.89783C4.23398 5.89717 4.30507 5.92599 4.35775 5.97788L4.53363 6.15116C4.64314 6.25905 4.81935 6.25773 4.92713 6.14822C5.03503 6.03871 5.03371 5.8625 4.9242 5.75461L4.74832 5.58133C4.5904 5.42576 4.37701 5.3394 4.15526 5.34128C3.93361 5.34315 3.72176 5.43322 3.5664 5.59146L1.2712 7.93116C0.949481 8.26012 0.953959 8.78711 1.2813 9.11057L3.25858 11.0586C3.5869 11.3809 4.11379 11.3775 4.43791 11.0509L6.74297 8.72117Z"/>
<path d="M7.60958 4.66515C7.50006 4.55725 7.32383 4.55856 7.21593 4.66809L4.75464 7.16629C4.64685 7.27582 4.64816 7.45204 4.75758 7.55995C4.86711 7.66785 5.04333 7.66654 5.15124 7.55701L7.61252 5.0587C7.72032 4.94918 7.719 4.77306 7.60958 4.66515Z"/>
</svg>
