<svg width="85" height="13" viewBox="0 0 85 13" fill="none" xmlns="http://www.w3.org/2000/svg">
<path d="M8.784 12.204H0V10.962L6.75 1.53H0V0.197999H8.658V1.44L1.908 10.872H8.784V12.204Z" fill="white"/>
<path d="M14.6693 12.204H22.5353V0.197999H14.6693V1.53H21.0413V5.4H14.7953V6.732H21.0413V10.872H14.6693V12.204Z" fill="white"/>
<path d="M37.2293 12.204H35.4653L32.4053 7.434H30.0113V12.204H28.5173V0.197999H33.3413C34.4573 0.197999 35.3633 0.528 36.0593 1.188C36.7553 1.848 37.1033 2.724 37.1033 3.816C37.1033 4.848 36.8033 5.67 36.2033 6.282C35.6033 6.894 34.8653 7.236 33.9893 7.308L37.2293 12.204ZM33.1613 6.12C33.8693 6.12 34.4453 5.904 34.8893 5.472C35.3333 5.04 35.5553 4.488 35.5553 3.816C35.5553 3.144 35.3333 2.598 34.8893 2.178C34.4453 1.746 33.8693 1.53 33.1613 1.53H30.0113V6.12H33.1613Z" fill="white"/>
<path d="M48.5405 12.42C46.7765 12.42 45.3425 11.832 44.2385 10.656C43.1345 9.48 42.5825 7.998 42.5825 6.21C42.5825 4.422 43.1345 2.94 44.2385 1.764C45.3425 0.588 46.7765 0 48.5405 0C50.2925 0 51.7205 0.588 52.8245 1.764C53.9405 2.94 54.4985 4.422 54.4985 6.21C54.4985 7.998 53.9405 9.48 52.8245 10.656C51.7205 11.832 50.2925 12.42 48.5405 12.42ZM48.5405 11.088C49.8605 11.088 50.9225 10.632 51.7265 9.72C52.5425 8.796 52.9505 7.626 52.9505 6.21C52.9505 4.782 52.5425 3.612 51.7265 2.7C50.9225 1.788 49.8605 1.332 48.5405 1.332C47.2085 1.332 46.1405 1.788 45.3365 2.7C44.5325 3.612 44.1305 4.782 44.1305 6.21C44.1305 7.626 44.5325 8.796 45.3365 9.72C46.1405 10.632 47.2085 11.088 48.5405 11.088Z" fill="white"/>
<path d="M70.3682 12.204H68.9282L61.9262 2.628V12.204H60.4322V0.197999H61.9622L68.8742 9.576V0.197999H70.3682V12.204Z" fill="white"/>
<path d="M84.6423 12.204H76.7763V0.197999H84.6423V1.53H78.2703V5.4H84.5163V6.732H78.2703V10.872H84.6423V12.204Z" fill="white"/>
</svg>
