<svg width="77" height="8" viewBox="0 0 77 8" fill="none" xmlns="http://www.w3.org/2000/svg">
<path d="M7.15991 7.45704L4.45261 0.744141H3.41599L0.71875 7.45704H1.67486L2.26866 5.96752H5.61001L6.2038 7.45704H7.15991ZM5.3584 5.22276H2.5102L3.93933 1.60967L5.3584 5.22276Z" fill="white" fill-opacity="0.6"/>
<path d="M11.6406 7.45704C13.7239 7.45704 15.0826 6.01784 15.0826 4.10562C15.0826 2.20347 13.7239 0.744141 11.6406 0.744141H9.34592V7.45704H11.6406ZM11.6406 6.71228H10.1813V1.4889H11.6406C13.3012 1.4889 14.217 2.65636 14.217 4.10562C14.217 5.54482 13.271 6.71228 11.6406 6.71228Z" fill="white" fill-opacity="0.6"/>
<path d="M24.2733 7.45704V0.744141H23.0756L20.9822 5.79643L18.8989 0.744141H17.7013V7.45704H18.5366V1.93173L20.8111 7.45704H21.1533L23.4379 1.93173V7.45704H24.2733Z" fill="white" fill-opacity="0.6"/>
<path d="M27.9829 7.45704V0.744141H27.1476V7.45704H27.9829Z" fill="white" fill-opacity="0.6"/>
<path d="M36.4194 7.45704V0.744141H35.5841V5.98765L31.7194 0.744141H30.8639V7.45704H31.6992V2.10282L35.6143 7.45704H36.4194Z" fill="white" fill-opacity="0.6"/>
<path d="M44.0363 7.45704V4.79H45.8982C47.2267 4.79 48.0016 3.86408 48.0016 2.76707C48.0016 1.67006 47.2468 0.744141 45.8982 0.744141H43.2009V7.45704H44.0363ZM45.7975 4.04524H44.0363V1.4889H45.7975C46.5926 1.4889 47.1361 2.01225 47.1361 2.76707C47.1361 3.52189 46.5926 4.04524 45.7975 4.04524Z" fill="white" fill-opacity="0.6"/>
<path d="M55.3865 7.45704L52.6792 0.744141H51.6426L48.9453 7.45704H49.9014L50.4952 5.96752H53.8366L54.4304 7.45704H55.3865ZM53.585 5.22276H50.7368L52.1659 1.60967L53.585 5.22276Z" fill="white" fill-opacity="0.6"/>
<path d="M63.128 7.45704V0.744141H62.2926V5.98765L58.4279 0.744141H57.5725V7.45704H58.4078V2.10282L62.3228 7.45704H63.128Z" fill="white" fill-opacity="0.6"/>
<path d="M70.4046 7.45704V6.71228H66.8418V4.39749H70.3341V3.65273H66.8418V1.4889H70.4046V0.744141H66.0065V7.45704H70.4046Z" fill="white" fill-opacity="0.6"/>
<path d="M77.0001 7.45704V6.71228H73.8801V0.744141H73.0448V7.45704H77.0001Z" fill="white" fill-opacity="0.6"/>
</svg>
