<svg width="21" height="15" viewBox="0 0 21 15" fill="none" xmlns="http://www.w3.org/2000/svg">
<path fill-rule="evenodd" clip-rule="evenodd" d="M14.3182 8.4375C14.3182 10.5088 12.6088 12.1875 10.5001 12.1875C8.39136 12.1875 6.68188 10.5088 6.68188 8.4375C6.68188 6.36621 8.39136 4.6875 10.5001 4.6875C12.6088 4.6875 14.3182 6.36621 14.3182 8.4375ZM12.8182 8.4375C12.8182 9.65479 11.8059 10.6875 10.5001 10.6875C9.19421 10.6875 8.18188 9.65479 8.18188 8.4375C8.18188 7.22021 9.19421 6.1875 10.5001 6.1875C11.8059 6.1875 12.8182 7.22021 12.8182 8.4375Z" fill="#BCBCC7"/>
<path fill-rule="evenodd" clip-rule="evenodd" d="M5.83008 0H15.1699L15.5929 2H21V15H0V2H5.4071L5.83008 0ZM6.62305 3.5L7.04602 1.5H13.954L14.377 3.5H19.5V13.5H1.5V3.5H6.62305Z" fill="#BCBCC7"/>
</svg>
