<svg width="155" height="136" viewBox="0 0 155 136" fill="none" xmlns="http://www.w3.org/2000/svg">
<g filter="url(#filter0_d)">
<mask id="mask0" mask-type="alpha" maskUnits="userSpaceOnUse" x="91" y="57" width="46" height="52">
<path opacity="0.4" d="M136.909 109H95.7304L91.3706 89.2164L108.198 57.6987L136.909 109Z" fill="#2C2350"/>
</mask>
<g mask="url(#mask0)">
<g opacity="0.7" filter="url(#filter1_f)">
<path d="M133.724 116.249H106.025L82.4531 76.503L92.3951 59.4656L133.724 116.249Z" fill="#2C2350"/>
</g>
</g>
<path d="M63.1874 13.7393L12 109H97.1028L76.9709 96.1762L73.3106 85.1846L54.0938 69.6132L68.7352 56.7897L61.8721 49.004L68.7352 35.2645L63.2447 28.3947L65.5324 24.2729L63.1874 13.7393Z" fill="url(#paint0_linear)"/>
<path d="M115.404 109L63.2438 13.7393L65.5323 24.2729L63.2438 28.3947L68.7351 35.2645L61.872 49.004L68.7351 56.7897L54.0938 69.6132L73.3105 85.1846L76.9708 96.1762L97.1027 109H115.404Z" fill="url(#paint1_linear)"/>
<path d="M45.0562 47.4783L61.8723 49.004L68.7394 35.2645L63.2489 28.3947L65.5366 24.2729L63.2489 13.7393L45.0562 47.4783Z" fill="white"/>
<path d="M80.4561 45.1719L63.2447 13.7393L65.5324 24.2729L63.2447 28.3947L68.7352 35.2645L61.8721 49.004L80.4561 45.1719Z" fill="url(#paint2_linear)"/>
<rect x="62.7871" width="0.915084" height="17.4034" fill="#DDDBE5"/>
<path d="M76.5134 0H62.7871V8.2437H76.5134L74.6832 4.12185L76.5134 0Z" fill="url(#paint3_linear)"/>
<path d="M111.505 51.5432L80.6313 109H131.961L119.819 101.265L117.611 94.6358L106.02 85.2438L114.851 77.5092L110.712 72.8133L114.851 64.5262L111.54 60.3827L112.92 57.8966L111.505 51.5432Z" fill="url(#paint4_linear)"/>
<path d="M143 109L111.539 51.5432L112.919 57.8966L111.539 60.3827L114.851 64.5262L110.711 72.8133L114.851 77.5092L106.02 85.2438L117.611 94.6358L119.818 101.265L131.961 109H143Z" fill="url(#paint5_linear)"/>
<path d="M100.57 71.893L110.713 72.8133L114.854 64.5262L111.543 60.3827L112.923 57.8966L111.543 51.5432L100.57 71.893Z" fill="white"/>
<path d="M121.921 70.502L111.54 51.5432L112.92 57.8966L111.54 60.3827L114.852 64.5262L110.712 72.8133L121.921 70.502Z" fill="url(#paint6_linear)"/>
</g>
<defs>
<filter id="filter0_d" x="0" y="0" width="155" height="136" filterUnits="userSpaceOnUse" color-interpolation-filters="sRGB">
<feFlood flood-opacity="0" result="BackgroundImageFix"/>
<feColorMatrix in="SourceAlpha" type="matrix" values="0 0 0 0 0 0 0 0 0 0 0 0 0 0 0 0 0 0 127 0"/>
<feOffset dy="15"/>
<feGaussianBlur stdDeviation="6"/>
<feColorMatrix type="matrix" values="0 0 0 0 0 0 0 0 0 0 0 0 0 0 0 0 0 0 0.06 0"/>
<feBlend mode="normal" in2="BackgroundImageFix" result="effect1_dropShadow"/>
<feBlend mode="normal" in="SourceGraphic" in2="effect1_dropShadow" result="shape"/>
</filter>
<filter id="filter1_f" x="70.4531" y="47.4656" width="75.2707" height="80.7833" filterUnits="userSpaceOnUse" color-interpolation-filters="sRGB">
<feFlood flood-opacity="0" result="BackgroundImageFix"/>
<feBlend mode="normal" in="SourceGraphic" in2="BackgroundImageFix" result="shape"/>
<feGaussianBlur stdDeviation="6" result="effect1_foregroundBlur"/>
</filter>
<linearGradient id="paint0_linear" x1="65.191" y1="52.6686" x2="13.4684" y2="107.063" gradientUnits="userSpaceOnUse">
<stop stop-color="#D7D5E0"/>
<stop offset="1" stop-color="#F0EDF8"/>
</linearGradient>
<linearGradient id="paint1_linear" x1="62.5936" y1="62.4692" x2="122.27" y2="105.438" gradientUnits="userSpaceOnUse">
<stop stop-color="#BFBBCD"/>
<stop offset="1" stop-color="#D9D5E5"/>
</linearGradient>
<linearGradient id="paint2_linear" x1="64.396" y1="28.5916" x2="83.4715" y2="43.4511" gradientUnits="userSpaceOnUse">
<stop stop-color="#F0EFF6"/>
<stop offset="1" stop-color="#D3D1DB"/>
</linearGradient>
<linearGradient id="paint3_linear" x1="76.5134" y1="5.15231" x2="63.2447" y2="5.15231" gradientUnits="userSpaceOnUse">
<stop stop-color="#DCDAE4"/>
<stop offset="1" stop-color="white"/>
</linearGradient>
<linearGradient id="paint4_linear" x1="113.249" y1="75.4805" x2="81.5174" y2="107.831" gradientUnits="userSpaceOnUse">
<stop stop-color="#D7D5E0"/>
<stop offset="1" stop-color="#F0EDF8"/>
</linearGradient>
<linearGradient id="paint5_linear" x1="111.147" y1="80.9349" x2="147.141" y2="106.852" gradientUnits="userSpaceOnUse">
<stop stop-color="#BFBBCD"/>
<stop offset="1" stop-color="#D9D5E5"/>
</linearGradient>
<linearGradient id="paint6_linear" x1="112.235" y1="60.5015" x2="123.74" y2="69.464" gradientUnits="userSpaceOnUse">
<stop stop-color="#F0EFF6"/>
<stop offset="1" stop-color="#D3D1DB"/>
</linearGradient>
</defs>
</svg>
