<svg width="113" height="137" viewBox="0 0 113 137" fill="none" xmlns="http://www.w3.org/2000/svg">
<g filter="url(#filter0_d)">
<path d="M89.8748 85.7241C79.5444 95.5862 63.3576 105.796 56.4995 110V0L101 5.31035V57.5508C101 74.2687 94.6428 81.1724 89.8748 85.7241Z" fill="#D5D2D2"/>
<path d="M89.8748 85.7241C79.5444 95.5862 63.3576 105.796 56.4995 110V0L101 5.31035V57.5508C101 74.2687 94.6428 81.1724 89.8748 85.7241Z" fill="url(#paint0_linear)"/>
<path d="M89.8748 85.7241C79.5444 95.5862 63.3576 105.796 56.4995 110V0L101 5.31035V57.5508C101 74.2687 94.6428 81.1724 89.8748 85.7241Z" fill="white" fill-opacity="0.4"/>
<path d="M23.1251 85.7241C33.4556 95.5862 49.6424 105.796 56.5005 110V0L12 5.31034V57.5508C12 74.2687 18.3572 81.1724 23.1251 85.7241Z" fill="white"/>
<path d="M23.1251 85.7241C33.4556 95.5862 49.6424 105.796 56.5005 110V0L12 5.31034V57.5508C12 74.2687 18.3572 81.1724 23.1251 85.7241Z" fill="url(#paint1_linear)"/>
<path d="M23.1251 85.7241C33.4556 95.5862 49.6424 105.796 56.5005 110V0L12 5.31034V57.5508C12 74.2687 18.3572 81.1724 23.1251 85.7241Z" fill="white" fill-opacity="0.7"/>
<g filter="url(#filter1_d)">
<path fill-rule="evenodd" clip-rule="evenodd" d="M64.4476 51.966V39.1745C64.4476 34.7592 60.8898 31.1798 56.5011 31.1798C52.1124 31.1798 48.5546 34.7592 48.5546 39.1745V51.966C48.5546 56.3814 52.1124 59.9607 56.5011 59.9607C60.8898 59.9607 64.4476 56.3814 64.4476 51.966ZM56.5011 27.9819C50.3569 27.9819 45.376 32.993 45.376 39.1745V51.966C45.376 58.1475 50.3569 63.1586 56.5011 63.1586C62.6453 63.1586 67.6262 58.1475 67.6262 51.966V39.1745C67.6262 32.993 62.6453 27.9819 56.5011 27.9819Z" fill="url(#paint2_radial)"/>
<path fill-rule="evenodd" clip-rule="evenodd" d="M64.4476 51.966V39.1745C64.4476 34.7592 60.8898 31.1798 56.5011 31.1798C52.1124 31.1798 48.5546 34.7592 48.5546 39.1745V51.966C48.5546 56.3814 52.1124 59.9607 56.5011 59.9607C60.8898 59.9607 64.4476 56.3814 64.4476 51.966ZM56.5011 27.9819C50.3569 27.9819 45.376 32.993 45.376 39.1745V51.966C45.376 58.1475 50.3569 63.1586 56.5011 63.1586C62.6453 63.1586 67.6262 58.1475 67.6262 51.966V39.1745C67.6262 32.993 62.6453 27.9819 56.5011 27.9819Z" fill="#0A0033" fill-opacity="0.06"/>
<rect x="40.6079" y="47.1685" width="31.786" height="23.9841" fill="#E0DCEE"/>
<rect x="40.6079" y="47.1685" width="31.786" height="23.9841" fill="url(#paint3_linear)"/>
<rect x="40.6079" y="47.1685" width="31.786" height="23.9841" fill="url(#paint4_linear)"/>
<rect x="40.6079" y="47.1685" width="31.786" height="23.9841" fill="#0A0033" fill-opacity="0.02"/>
<path fill-rule="evenodd" clip-rule="evenodd" d="M58.0908 59.5322C59.0405 58.979 59.6797 57.9458 59.6797 56.7622C59.6797 54.9961 58.2563 53.5645 56.501 53.5645C54.7456 53.5645 53.3223 54.9961 53.3223 56.7622C53.3223 57.9458 53.9619 58.9795 54.9121 59.5327V64.7661C54.9121 65.6436 55.6235 66.3555 56.5015 66.3555C57.3794 66.3555 58.0908 65.6436 58.0908 64.7661V59.5322Z" fill="url(#paint5_linear)"/>
</g>
</g>
<defs>
<filter id="filter0_d" x="0" y="0" width="113" height="137" filterUnits="userSpaceOnUse" color-interpolation-filters="sRGB">
<feFlood flood-opacity="0" result="BackgroundImageFix"/>
<feColorMatrix in="SourceAlpha" type="matrix" values="0 0 0 0 0 0 0 0 0 0 0 0 0 0 0 0 0 0 127 0"/>
<feOffset dy="15"/>
<feGaussianBlur stdDeviation="6"/>
<feColorMatrix type="matrix" values="0 0 0 0 0 0 0 0 0 0 0 0 0 0 0 0 0 0 0.06 0"/>
<feBlend mode="normal" in2="BackgroundImageFix" result="effect1_dropShadow"/>
<feBlend mode="normal" in="SourceGraphic" in2="effect1_dropShadow" result="shape"/>
</filter>
<filter id="filter1_d" x="34.6079" y="24.9819" width="43.786" height="55.1706" filterUnits="userSpaceOnUse" color-interpolation-filters="sRGB">
<feFlood flood-opacity="0" result="BackgroundImageFix"/>
<feColorMatrix in="SourceAlpha" type="matrix" values="0 0 0 0 0 0 0 0 0 0 0 0 0 0 0 0 0 0 127 0"/>
<feOffset dy="3"/>
<feGaussianBlur stdDeviation="3"/>
<feColorMatrix type="matrix" values="0 0 0 0 0.0799184 0 0 0 0 0.0398543 0 0 0 0 0.240175 0 0 0 0.08 0"/>
<feBlend mode="normal" in2="BackgroundImageFix" result="effect1_dropShadow"/>
<feBlend mode="normal" in="SourceGraphic" in2="effect1_dropShadow" result="shape"/>
</filter>
<linearGradient id="paint0_linear" x1="61" y1="-6.18051e-08" x2="83.7717" y2="88.9227" gradientUnits="userSpaceOnUse">
<stop stop-color="#F1EFFC"/>
<stop offset="1" stop-color="#D3CDE8"/>
</linearGradient>
<linearGradient id="paint1_linear" x1="52" y1="-6.18051e-08" x2="29.2283" y2="88.9227" gradientUnits="userSpaceOnUse">
<stop stop-color="#F1EFFC"/>
<stop offset="1" stop-color="#D3CDE8"/>
</linearGradient>
<radialGradient id="paint2_radial" cx="0" cy="0" r="1" gradientUnits="userSpaceOnUse" gradientTransform="translate(56.5005 38.7037) rotate(90) scale(9.16667 9.79287)">
<stop offset="6.28125e-10" stop-color="#868490"/>
<stop offset="1" stop-color="#E6E3F2"/>
<stop offset="1" stop-color="#DFDBF0"/>
</radialGradient>
<linearGradient id="paint3_linear" x1="56.5005" y1="56.0183" x2="40.2262" y2="70.9981" gradientUnits="userSpaceOnUse">
<stop stop-color="#E5E1F3" stop-opacity="0"/>
<stop offset="1" stop-color="#CBC8D8"/>
</linearGradient>
<linearGradient id="paint4_linear" x1="57.0005" y1="59.0739" x2="72.2144" y2="71.0237" gradientUnits="userSpaceOnUse">
<stop stop-color="#E5E1F3" stop-opacity="0"/>
<stop offset="1" stop-color="#CCC9D8"/>
</linearGradient>
<linearGradient id="paint5_linear" x1="56.501" y1="53.5645" x2="56.501" y2="66.3555" gradientUnits="userSpaceOnUse">
<stop stop-color="#C8C5D7"/>
<stop offset="1" stop-color="#A49FB9"/>
</linearGradient>
</defs>
</svg>
