<svg width="17" height="20" viewBox="0 0 17 20" fill="none" xmlns="http://www.w3.org/2000/svg">
<path d="M15.8315 9.69419C15.8315 8.44537 14.9866 7.39247 13.8431 7.09453V5.40397C13.8431 2.55244 11.3328 0.266846 8.29073 0.266846C5.24866 0.266846 2.73838 2.55244 2.73838 5.40397V7.09453C1.59486 7.39248 0.75 8.44541 0.75 9.69453V16.281C0.75 17.7582 1.93271 18.9672 3.39567 18.9672H13.1858C14.6488 18.9672 15.8315 17.7582 15.8315 16.2807V9.69419ZM3.90117 5.40397C3.90117 3.24094 5.84718 1.44093 8.29073 1.44093C10.7343 1.44093 12.6803 3.24094 12.6803 5.40397V7.00771H3.90117V5.40397ZM14.6687 16.2807C14.6687 17.1183 13.9992 17.7931 13.1858 17.7931H3.39567C2.58229 17.7931 1.91279 17.1183 1.91279 16.2807V9.69419C1.91279 8.85657 2.58229 8.18179 3.39567 8.18179H13.1858C13.9992 8.18179 14.6687 8.85657 14.6687 9.69419V16.2807Z" fill="#FF5573" stroke="#FF5573" stroke-width="0.5"/>
<line x1="8.28516" y1="12.0208" x2="8.28516" y2="14.2779" stroke="#FF5573" stroke-width="2" stroke-linecap="round"/>
</svg>
